<?xml version="1.0" standalone="no"?>
<!DOCTYPE svg PUBLIC "-//W3C//DTD SVG 20010904//EN"
 "http://www.w3.org/TR/2001/REC-SVG-20010904/DTD/svg10.dtd">
<svg version="1.0" xmlns="http://www.w3.org/2000/svg"
 width="700.000000pt" height="700.000000pt" viewBox="0 0 700.000000 700.000000"
 preserveAspectRatio="xMidYMid meet">
<metadata>
Created by potrace 1.14, written by Peter Selinger 2001-2017
</metadata>
<g transform="translate(0.000000,700.000000) scale(0.100000,-0.100000)"
fill="#000000" stroke="none">
<path d="M4337 6604 c-4 -4 -17 -9 -30 -11 -12 -2 -31 -5 -42 -7 -11 -2 -24
-4 -28 -5 -5 0 -6 -5 -3 -10 3 -5 0 -9 -7 -8 -34 1 -47 -5 -47 -20 0 -15 -2
-16 -10 -3 -8 13 -10 12 -10 -2 0 -10 -4 -17 -8 -15 -11 3 -102 -93 -102 -108
0 -7 -7 -18 -15 -25 -8 -7 -15 -18 -14 -24 1 -6 1 -18 0 -26 -1 -13 -2 -13
-11 0 -7 10 -10 11 -10 2 0 -18 -70 29 -71 48 0 10 -2 11 -6 3 -3 -8 -12 -5
-26 11 -12 13 -28 21 -34 19 -7 -3 -13 0 -13 7 0 6 -4 9 -9 6 -5 -4 -11 -2
-13 4 -3 10 -36 13 -73 8 -31 -5 -66 -28 -60 -39 4 -5 1 -8 -5 -7 -18 4 -41
-70 -39 -124 2 -27 6 -48 10 -48 4 0 6 -9 4 -20 -2 -11 2 -20 8 -20 7 0 13 -8
14 -17 1 -10 4 -33 6 -50 2 -18 0 -30 -4 -27 -5 3 -9 -2 -9 -10 0 -9 -4 -16
-10 -16 -5 0 -9 -3 -8 -7 3 -15 -14 -63 -23 -63 -5 0 -8 -3 -8 -7 1 -5 1 -17
0 -28 -1 -15 -3 -17 -10 -6 -5 8 -14 10 -21 6 -9 -5 -11 -4 -6 3 8 14 7 14
-54 17 -45 2 -113 -21 -104 -36 2 -4 -4 -13 -13 -19 -13 -8 -14 -13 -5 -16 6
-3 9 -11 5 -17 -4 -7 -8 -21 -8 -32 0 -23 -30 -28 -31 -5 0 8 -9 42 -19 75
-11 33 -19 66 -18 73 0 6 -3 12 -8 12 -5 0 -9 9 -9 20 0 11 -5 20 -11 20 -5 0
-9 10 -7 23 2 14 -2 21 -10 19 -8 -1 -11 2 -7 8 3 5 0 24 -8 42 -29 67 -34 83
-31 101 1 9 -2 17 -7 17 -4 0 -6 7 -3 15 4 8 2 15 -3 15 -5 0 -10 15 -11 33
-2 17 -7 34 -12 35 -6 2 -8 8 -4 13 3 5 0 9 -6 9 -6 0 -8 5 -5 10 3 6 2 10 -4
10 -5 0 -15 16 -21 35 -6 19 -15 33 -20 30 -5 -3 -15 1 -22 8 -14 16 -51 10
-41 -7 4 -7 1 -7 -7 1 -10 9 -19 9 -41 -3 -16 -8 -29 -20 -29 -26 0 -6 -3 -9
-6 -5 -3 3 -15 -3 -27 -13 -11 -11 -24 -17 -28 -15 -10 7 -22 -32 -14 -45 3
-6 -1 -7 -10 -4 -11 5 -14 2 -9 -10 3 -9 1 -16 -6 -16 -6 0 -9 4 -5 9 3 6 -3
14 -12 20 -10 5 -17 13 -16 18 1 4 -5 7 -12 7 -8 -1 -12 2 -9 7 3 5 -1 9 -8 9
-10 0 -10 2 1 9 11 7 9 10 -8 16 -11 3 -21 11 -21 16 0 6 -4 7 -10 4 -5 -3
-10 2 -10 11 0 10 -3 14 -7 11 -3 -4 -15 0 -25 10 -10 9 -18 12 -18 8 0 -4 -8
2 -19 13 -10 12 -21 19 -24 15 -4 -3 -9 1 -12 10 -4 9 -17 14 -35 13 -16 -1
-28 3 -27 8 1 6 -10 11 -25 10 -16 0 -28 3 -28 7 0 4 -9 6 -20 4 -11 -2 -22 1
-26 6 -4 6 -11 6 -20 -2 -11 -9 -14 -8 -14 2 0 11 -2 11 -10 -1 -8 -12 -10
-12 -10 -1 0 11 -3 11 -15 1 -8 -7 -15 -8 -15 -3 0 12 -92 -16 -102 -31 -4 -6
-8 -7 -8 -3 0 4 -15 -3 -33 -17 -19 -15 -39 -26 -45 -26 -7 0 -11 -4 -10 -9 2
-5 -12 -25 -30 -45 -18 -20 -30 -36 -27 -36 2 0 -2 -8 -10 -17 -8 -10 -15 -22
-14 -27 0 -5 -4 -12 -10 -15 -6 -4 -12 -18 -13 -31 -2 -14 -7 -28 -12 -32 -6
-4 -11 -41 -12 -83 -1 -77 -14 -105 -39 -85 -13 10 -105 7 -124 -4 -10 -6 -12
-6 -6 3 5 9 2 10 -11 3 -35 -18 -89 -39 -96 -38 -4 0 -22 -19 -40 -44 -18 -25
-36 -46 -40 -48 -4 -2 -4 -10 -1 -18 3 -8 -1 -14 -8 -14 -11 0 -11 -3 1 -10 8
-5 10 -10 4 -10 -10 0 -11 -14 -2 -85 2 -11 9 -26 16 -33 7 -8 10 -18 7 -23
-4 -5 -1 -9 5 -9 6 0 9 -4 6 -9 -3 -5 8 -23 24 -41 29 -31 41 -58 20 -45 -5 3
-10 1 -10 -5 0 -6 -4 -9 -9 -6 -5 3 -14 -1 -21 -9 -7 -8 -20 -15 -30 -15 -9 0
-25 -9 -35 -20 -10 -11 -22 -17 -26 -14 -5 3 -9 -1 -9 -9 0 -8 -7 -20 -15 -27
-14 -11 -22 -7 -55 31 -22 24 -40 40 -40 34 0 -5 -5 -2 -10 7 -6 10 -19 15
-30 13 -11 -2 -18 0 -15 6 4 5 -12 9 -37 10 -24 0 -53 2 -66 5 -17 3 -21 1
-16 -8 6 -10 5 -10 -8 -1 -8 7 -17 11 -20 8 -2 -3 -23 -6 -46 -7 -23 -1 -42
-4 -42 -8 0 -4 -13 -6 -30 -5 -16 1 -30 -2 -30 -6 0 -4 -13 -10 -30 -14 -16
-4 -30 -11 -30 -17 0 -6 -6 -8 -14 -5 -8 3 -17 -1 -20 -9 -3 -9 -11 -12 -16
-9 -6 4 -10 3 -9 -2 2 -4 -23 -35 -54 -67 -31 -33 -57 -65 -57 -73 0 -7 -5
-13 -11 -13 -5 0 -7 -4 -4 -10 3 -5 1 -10 -5 -10 -6 0 -8 -4 -5 -10 3 -5 1
-10 -4 -10 -6 0 -11 -7 -11 -16 0 -8 -5 -25 -12 -37 -12 -24 -17 -57 -23 -162
-2 -38 -4 -72 -5 -75 -1 -3 -2 -7 -2 -10 0 -3 -10 -10 -24 -17 -13 -6 -24 -7
-24 -2 0 5 -14 2 -30 -6 -17 -9 -34 -13 -39 -11 -5 3 -14 -1 -21 -9 -7 -8 -17
-12 -24 -8 -6 3 -8 3 -4 -1 8 -10 -14 -36 -24 -29 -5 2 -8 -1 -8 -6 0 -19 -3
-26 -15 -36 -14 -11 -30 -62 -26 -82 1 -7 -2 -13 -7 -13 -5 0 -9 -7 -9 -15 0
-8 5 -15 11 -15 6 0 4 -5 -4 -10 -11 -7 -11 -10 -2 -10 7 0 12 -6 11 -12 -5
-23 12 -76 27 -88 7 -7 12 -15 9 -19 -5 -8 75 -47 88 -43 5 1 6 -2 3 -7 -3 -5
2 -12 12 -16 16 -6 16 -7 0 -19 -10 -7 -15 -15 -12 -19 3 -3 0 -14 -7 -25 -8
-12 -9 -29 -4 -48 5 -16 9 -32 9 -36 1 -3 10 -17 21 -30 24 -27 25 -30 29 -68
1 -18 -31 -53 -44 -45 -5 3 -11 -4 -15 -15 -3 -11 -10 -20 -15 -20 -19 0 6
-59 37 -85 13 -11 23 -27 23 -34 0 -8 3 -12 6 -8 7 6 54 -41 54 -54 0 -5 4 -9
10 -9 5 0 36 -27 69 -59 33 -32 62 -56 65 -53 3 3 6 -2 6 -11 0 -9 3 -16 8
-16 20 3 32 -3 32 -17 0 -11 5 -14 17 -10 10 4 14 4 11 0 -7 -6 15 -34 26 -34
3 0 14 -8 25 -17 28 -27 80 -66 110 -83 14 -8 36 -25 47 -37 12 -12 25 -19 28
-16 3 3 8 -2 12 -11 3 -9 15 -16 25 -16 10 0 19 -4 19 -8 0 -4 13 -15 29 -25
17 -10 30 -25 29 -35 -1 -75 6 -131 16 -125 6 4 5 -1 -3 -10 -9 -11 -10 -17
-2 -17 6 0 11 -5 11 -11 0 -5 -5 -7 -11 -3 -8 4 -8 0 0 -15 7 -11 9 -21 5 -21
-3 0 -2 -6 2 -12 5 -7 9 -22 9 -33 0 -11 5 -26 12 -33 7 -8 11 -18 8 -23 -4
-5 -1 -9 5 -9 7 0 10 -7 6 -15 -3 -8 -1 -15 5 -15 6 0 7 -5 3 -12 -5 -7 -2 -9
9 -5 11 4 15 1 12 -13 -2 -10 5 -26 16 -36 10 -9 19 -23 19 -31 0 -8 5 -11 12
-7 8 5 9 2 5 -9 -4 -11 -1 -17 8 -17 14 0 20 -12 16 -33 -1 -5 2 -6 7 -3 5 3
15 -6 22 -19 7 -14 17 -25 22 -25 4 0 8 -5 8 -12 0 -7 12 -23 27 -35 14 -13
22 -23 18 -23 -4 0 5 -11 21 -25 16 -14 33 -25 37 -25 5 0 6 -3 4 -7 -4 -10
40 -53 47 -45 3 3 6 -2 6 -12 0 -9 5 -14 10 -11 6 3 10 0 10 -8 0 -7 11 -20
25 -27 13 -7 23 -16 21 -19 -2 -3 2 -12 10 -19 8 -7 14 -11 14 -8 0 3 13 -7
29 -22 15 -15 26 -30 24 -34 -2 -5 1 -8 8 -8 6 0 30 -20 54 -45 23 -25 45 -42
48 -38 4 3 7 1 7 -4 0 -6 16 -28 35 -47 19 -20 35 -34 35 -31 0 3 6 0 14 -7 8
-7 13 -15 11 -18 -1 -3 17 -21 41 -40 23 -19 43 -41 43 -47 1 -7 4 -12 9 -11
4 2 52 -42 107 -97 55 -55 103 -99 108 -97 5 1 6 -2 2 -7 -3 -6 3 -16 15 -23
11 -7 20 -19 20 -26 0 -7 5 -10 10 -7 6 3 10 1 10 -4 0 -6 15 -25 33 -42 17
-17 31 -35 30 -40 -2 -5 2 -9 8 -9 6 0 22 -14 37 -32 22 -26 27 -42 27 -86 0
-29 -3 -56 -8 -59 -4 -3 0 -12 10 -20 10 -8 12 -12 6 -8 -7 3 -13 1 -13 -4 0
-6 4 -11 10 -11 5 0 9 -3 8 -7 -4 -14 13 -53 22 -53 5 0 7 -6 4 -14 -3 -8 -13
-15 -22 -15 -44 1 -112 -29 -112 -48 0 -8 -5 -11 -10 -8 -9 6 -35 -41 -32 -57
1 -5 -3 -8 -10 -8 -6 0 -8 -3 -5 -6 3 -4 2 -15 -4 -25 -6 -13 -6 -19 0 -19 6
0 8 -7 5 -15 -4 -8 -11 -12 -18 -8 -6 3 -8 3 -5 -1 4 -4 3 -23 -1 -42 -4 -18
-4 -34 1 -34 4 0 6 -6 3 -14 -3 -8 0 -17 5 -21 6 -3 9 -11 6 -16 -4 -5 -1 -9
5 -9 6 0 8 -5 5 -10 -3 -6 -1 -10 4 -10 6 0 27 -16 47 -35 20 -19 40 -33 45
-29 5 3 12 -2 15 -10 3 -9 13 -16 21 -16 8 0 24 -5 36 -12 12 -6 36 -13 52
-15 17 -2 36 -4 43 -5 6 -1 12 -7 12 -15 0 -7 -6 -12 -12 -10 -7 1 -12 -4 -11
-10 2 -7 -2 -13 -8 -13 -5 0 -8 -4 -5 -8 3 -5 -1 -21 -9 -36 -10 -18 -10 -24
-2 -19 9 5 9 4 0 -8 -6 -8 -13 -26 -15 -39 -2 -14 -7 -30 -10 -36 -4 -6 -6
-21 -3 -33 2 -12 0 -19 -6 -15 -6 3 -8 -5 -5 -20 3 -15 0 -26 -6 -26 -6 0 -6
-6 2 -15 7 -8 8 -15 3 -15 -6 0 -10 -14 -11 -30 0 -17 5 -30 11 -30 8 0 8 -3
-1 -9 -8 -4 -13 -11 -13 -15 1 -3 0 -8 0 -11 -1 -3 -2 -8 -3 -12 -1 -5 -10
-23 -19 -40 -10 -18 -14 -33 -10 -33 5 0 0 -5 -9 -11 -25 -14 -23 -55 2 -62
12 -3 18 -1 14 5 -5 7 2 9 20 6 14 -3 26 -2 26 2 0 3 14 5 30 2 25 -4 30 -9
30 -31 0 -15 5 -32 12 -39 7 -7 8 -12 4 -12 -5 0 -3 -7 4 -15 7 -8 10 -15 6
-15 -3 0 3 -10 14 -22 10 -13 19 -27 19 -32 0 -5 11 -16 25 -26 15 -9 23 -21
19 -26 -5 -5 -4 -6 1 -2 5 4 23 -4 41 -17 17 -14 37 -25 42 -25 6 0 16 -7 23
-15 7 -9 15 -13 18 -11 2 3 18 -2 34 -10 16 -8 33 -12 38 -9 6 3 10 2 10 -2 0
-5 14 -10 32 -11 20 -2 44 -15 68 -38 37 -36 114 -77 124 -66 3 3 6 1 6 -5 0
-6 10 -9 23 -9 12 1 27 0 32 -3 13 -7 105 -8 105 -1 0 4 14 5 30 4 17 -1 33 2
36 7 3 5 10 7 15 4 5 -4 9 -1 9 6 0 8 4 8 15 -1 12 -10 16 -9 21 4 3 9 14 16
24 16 10 0 23 7 30 15 7 8 19 15 26 15 8 0 14 4 14 9 0 8 32 24 52 26 3 0 10
3 14 8 4 4 20 7 36 7 15 0 28 5 28 10 0 7 6 7 20 0 17 -9 20 -8 20 7 0 14 2
15 9 5 6 -11 10 -10 15 4 3 9 9 14 13 11 3 -4 12 -2 20 4 7 6 13 8 13 5 0 -4
21 8 48 26 26 18 51 32 55 30 5 -1 7 1 5 5 -5 11 49 62 58 54 4 -3 4 -1 1 6
-4 6 0 18 8 26 8 9 17 29 18 46 4 29 17 57 17 34 0 -5 6 -10 13 -10 6 0 17 -2
22 -3 20 -5 36 0 30 10 -3 6 -1 10 6 10 7 0 10 3 6 6 -5 6 26 45 86 105 15 15
27 33 27 39 0 6 3 9 8 7 4 -2 18 6 32 19 21 20 22 24 7 24 -10 0 -15 5 -12 10
3 6 0 10 -8 10 -8 0 -22 9 -32 20 -10 11 -23 20 -29 20 -17 0 -133 129 -128
143 1 4 -2 7 -6 7 -5 0 -19 19 -32 43 -13 23 -28 45 -34 49 -7 5 -7 8 -1 8 6
0 3 5 -5 10 -13 9 -13 11 0 19 8 5 18 7 22 5 4 -3 8 1 8 8 0 8 3 9 8 3 7 -11
62 -14 62 -4 0 3 12 6 28 7 34 1 54 5 70 15 6 5 12 5 12 1 0 -4 10 1 22 12 14
13 19 14 14 4 -4 -9 -2 -8 7 2 8 10 20 18 27 18 7 0 10 3 7 7 -4 3 0 14 9 24
8 9 18 43 21 75 3 33 11 65 17 73 9 12 8 13 -4 6 -12 -6 -13 -5 -2 6 15 16 16
33 0 23 -7 -5 -8 -3 -2 7 12 19 12 50 0 74 -6 11 -9 25 -8 31 1 5 -7 20 -18
32 -11 12 -20 26 -20 31 0 6 -9 15 -20 21 -11 6 -20 7 -20 3 0 -4 -7 2 -15 13
-8 10 -15 15 -15 9 0 -5 -4 -4 -9 3 -4 7 -18 14 -29 15 -12 1 -23 6 -23 12 -5
33 -5 172 0 180 11 21 10 69 -1 83 -11 13 -11 14 1 8 9 -6 12 -5 9 5 -5 14 3
27 40 64 12 12 22 25 22 28 0 4 21 28 47 54 25 26 46 50 47 53 0 6 27 36 73
84 18 19 29 37 25 41 -4 3 -2 5 3 4 11 -4 165 147 165 161 0 5 8 11 19 15 10
3 29 19 41 35 12 16 27 27 31 24 5 -3 9 -2 9 3 1 4 12 22 26 38 15 17 23 23
19 15 -3 -8 1 -6 9 4 9 11 16 24 16 29 0 4 5 5 10 2 6 -3 10 1 10 10 0 9 4 14
9 10 6 -3 15 4 21 15 6 11 15 18 21 15 5 -4 9 -1 9 4 0 6 9 20 20 31 11 11 20
18 20 16 0 -2 27 23 60 55 34 33 65 59 71 59 6 0 7 5 4 10 -3 6 1 10 10 10 9
0 13 4 10 10 -3 6 1 10 9 10 9 0 16 5 16 10 0 6 20 31 45 57 25 25 45 50 45
55 0 5 4 7 9 3 5 -3 12 4 16 15 3 11 10 20 15 20 10 0 43 51 43 67 0 7 4 10 8
8 10 -7 20 25 12 37 -3 7 -1 8 5 4 7 -4 12 -1 12 8 0 9 5 16 10 16 6 0 10 9
10 21 0 11 3 18 8 16 4 -3 8 9 9 26 1 17 8 34 14 38 7 4 9 14 6 23 -4 9 -2 16
2 16 5 0 7 8 4 19 -3 13 5 25 31 40 20 13 36 27 36 32 0 5 7 9 15 9 7 0 19 8
24 18 6 9 11 13 11 9 0 -5 12 0 28 10 15 10 39 25 54 32 15 8 25 18 22 22 -3
5 2 6 10 3 9 -3 16 -2 16 3 0 4 16 17 35 27 19 11 35 23 35 28 0 5 5 6 10 3 6
-3 10 -1 10 4 0 6 7 11 16 11 8 0 12 5 9 10 -3 6 0 10 7 10 7 0 35 16 62 35
27 19 52 33 54 30 3 -3 10 2 16 9 14 19 102 67 110 61 3 -3 4 -2 1 2 -6 7 68
43 105 49 13 3 29 9 35 13 5 4 23 8 38 9 31 2 66 30 51 40 -5 4 -10 14 -12 22
-2 8 -8 17 -13 18 -5 2 -6 9 -3 14 4 6 2 8 -4 5 -5 -4 -22 7 -36 24 -15 17
-30 29 -33 25 -3 -3 -17 6 -30 20 -12 14 -23 23 -23 20 0 -3 -10 3 -22 14 -13
10 -27 19 -31 19 -5 0 -17 10 -28 22 -10 12 -19 19 -19 15 0 -4 -10 -1 -22 6
-13 6 -29 13 -36 14 -18 3 -29 14 -14 14 6 0 9 6 6 14 -4 10 5 16 25 21 18 4
31 13 31 21 0 9 4 13 9 10 22 -14 142 139 124 158 -4 3 -2 6 4 6 5 0 10 6 11
13 0 6 3 27 6 45 3 21 0 32 -7 32 -7 0 -6 4 3 10 12 8 12 10 -2 15 -10 4 -14
13 -11 22 4 10 2 14 -4 10 -7 -4 -9 0 -6 11 2 10 -7 30 -21 47 -14 16 -22 33
-19 38 3 6 1 7 -5 3 -6 -3 -13 2 -16 12 -4 11 -18 24 -31 30 -14 6 -25 16 -25
22 0 5 -7 10 -15 10 -8 0 -15 4 -15 9 0 9 -40 27 -49 22 -2 -2 -7 1 -10 6 -3
5 -19 14 -34 21 -19 8 -27 18 -23 27 3 8 0 15 -7 15 -7 0 -8 3 -2 8 6 4 10 16
9 27 0 11 4 26 9 33 6 8 5 12 -2 12 -8 0 -9 6 -2 18 6 11 6 24 0 35 -7 12 -6
17 3 17 8 0 9 3 3 8 -14 10 -17 39 -5 47 7 4 7 12 0 26 -9 15 -7 19 5 19 9 0
13 5 10 10 -4 6 -1 18 7 27 11 14 11 16 -2 9 -10 -5 -10 -3 2 6 12 10 14 18 6
31 -7 13 -6 17 4 15 8 -2 13 6 12 20 -1 12 3 22 9 22 6 0 7 3 4 7 -4 3 -2 12
4 20 9 10 8 13 -2 13 -9 1 -8 4 4 11 9 6 15 14 12 20 -4 5 -1 9 5 9 6 0 8 5 5
10 -3 6 -1 10 5 10 6 0 8 5 5 10 -4 6 -3 16 2 23 17 22 9 52 -15 55 -12 2 -19
8 -16 14 4 6 -2 6 -15 -1 -14 -8 -21 -8 -21 -1 0 5 -10 9 -22 9 -13 0 -38 2
-55 5 -18 3 -35 1 -38 -5 -4 -5 -12 -6 -18 -2 -15 9 -97 11 -97 3 0 -4 -10 -6
-22 -5 -13 1 -27 0 -33 -4 -34 -20 -50 2 -50 70 0 33 -3 59 -6 59 -3 0 -5 10
-4 23 1 12 -2 28 -8 35 -5 6 -6 12 -1 12 4 0 -3 11 -16 25 -12 13 -28 21 -34
17 -16 -9 -37 -14 -68 -14 -15 0 -25 -4 -22 -9 3 -5 -2 -6 -10 -3 -9 3 -16 2
-16 -4 0 -6 -11 -9 -25 -7 -14 1 -25 -1 -25 -5 0 -8 -39 -23 -53 -21 -4 1 -10
-6 -13 -14 -4 -8 -13 -15 -21 -15 -9 0 -32 -17 -51 -37 -20 -21 -32 -32 -27
-24 5 10 4 12 -3 7 -7 -4 -12 -13 -12 -19 0 -15 -35 -47 -51 -47 -5 0 -8 -4
-4 -9 3 -5 1 -12 -5 -16 -6 -4 -8 -11 -5 -16 4 -5 0 -9 -8 -9 -8 0 -17 -7 -21
-15 -3 -8 -10 -15 -16 -15 -6 0 -9 4 -6 9 4 5 0 12 -6 14 -10 4 -10 6 0 6 7 1
10 6 7 11 -3 6 -1 10 5 10 6 0 8 5 5 11 -4 5 5 21 18 33 14 13 23 27 20 30 -4
3 -2 6 4 6 10 0 26 36 24 53 -1 4 3 7 8 7 7 0 20 27 25 53 0 4 8 12 16 17 13
9 13 10 0 10 -12 1 -11 3 3 11 9 6 15 14 12 20 -4 5 -1 9 5 9 7 0 10 7 6 15
-3 8 -1 15 4 15 6 0 10 9 10 19 0 11 6 22 13 24 9 4 8 8 -3 16 -13 9 -13 11 0
11 10 0 11 3 2 12 -8 8 -8 17 0 31 6 11 6 22 1 26 -5 3 -9 17 -8 31 0 14 -9
33 -19 43 -10 9 -16 17 -12 17 4 0 1 6 -6 14 -7 8 -15 12 -17 10 -2 -2 -9 4
-16 13 -7 9 -21 19 -31 22 -28 7 -224 6 -257 -3 -19 -4 -26 -3 -22 4 3 5 2 10
-3 10 -9 0 -35 52 -39 79 -1 8 -6 17 -11 20 -5 3 -8 14 -6 24 2 13 -2 17 -12
13 -12 -5 -12 -2 -3 15 6 12 7 19 1 15 -12 -7 -25 22 -15 36 3 6 1 8 -4 5 -6
-4 -13 3 -16 14 -3 12 -10 18 -15 15 -6 -4 -8 3 -4 16 4 16 2 19 -8 13 -10 -6
-12 -4 -7 8 6 15 -15 42 -25 32 -3 -3 -11 2 -19 12 -12 15 -12 16 1 9 8 -5 3
2 -11 15 -15 13 -27 27 -28 32 0 4 -3 7 -7 7 -3 -1 -13 8 -22 18 -22 26 -124
80 -140 74 -6 -2 -12 1 -12 6 0 6 -9 8 -20 5 -12 -3 -20 0 -20 6 0 7 -5 9 -12
4 -20 -12 -38 -12 -38 -1 0 7 -5 6 -14 -1 -10 -9 -15 -9 -18 -1 -2 6 -7 8 -11
4z m-237 -198 c0 -2 -7 -7 -16 -10 -8 -3 -12 -2 -9 4 6 10 25 14 25 6z m625
-6 c3 -5 1 -10 -4 -10 -6 0 -11 5 -11 10 0 6 2 10 4 10 3 0 8 -4 11 -10z
m-1754 -83 c-6 -8 -7 -18 -3 -22 4 -5 1 -5 -6 -1 -10 6 -10 11 -1 22 6 8 14
14 16 14 3 0 0 -6 -6 -13z m773 -83 c3 -8 2 -12 -4 -9 -6 3 -10 10 -10 16 0
14 7 11 14 -7z m587 -391 c13 -16 12 -17 -3 -4 -10 7 -18 15 -18 17 0 8 8 3
21 -13z m50 -86 c-10 -9 -11 -8 -5 6 3 10 9 15 12 12 3 -3 0 -11 -7 -18z m34
-28 c10 -30 2 -32 -12 -3 -6 13 -7 24 -3 24 5 0 12 -9 15 -21z m-2068 -1521
c2 -17 0 -19 -7 -8 -5 8 -6 18 -4 22 8 12 10 10 11 -14z m407 -2509 c4 6 13 8
19 4 13 -8 18 -9 55 -11 12 -1 22 -7 22 -13 0 -13 46 -59 58 -59 4 0 -2 7 -12
15 -11 8 -14 15 -7 15 6 0 20 -8 31 -18 18 -17 18 -17 -16 -18 -19 0 -34 3
-34 8 0 4 -5 8 -11 8 -5 0 -8 -4 -5 -9 9 -13 -38 -8 -47 6 -4 7 -13 10 -20 7
-8 -2 -26 2 -42 10 -16 8 -32 13 -37 10 -4 -3 -8 0 -8 5 0 6 -6 11 -13 11 -8
0 -14 6 -14 14 0 8 8 13 17 11 9 -2 23 1 31 5 8 5 16 5 20 -2 4 -7 9 -7 13 1z
m1555 -26 c13 3 21 0 21 -8 0 -7 8 -19 18 -26 16 -13 16 -13 2 6 -14 19 -14
20 6 2 11 -9 25 -14 29 -10 5 5 4 1 -3 -9 -10 -13 -10 -17 0 -22 7 -3 3 -4 -9
-2 -24 4 -31 -8 -10 -18 6 -4 2 -4 -11 -2 -20 4 -22 2 -10 -12 11 -14 8 -13
-17 2 l-30 19 19 -21 c11 -12 17 -22 15 -23 -2 0 -12 -2 -22 -4 -10 -2 -25 -9
-34 -16 -14 -13 -27 -15 -98 -22 -17 -2 -36 -6 -43 -11 -6 -4 -12 -3 -12 2 0
5 -11 8 -24 7 -17 -2 -23 2 -22 13 2 9 8 18 14 20 7 2 9 9 5 15 -4 6 0 8 10 4
10 -4 16 -2 14 5 -1 5 7 12 18 14 11 1 25 10 31 18 6 9 19 16 28 16 10 0 16 5
14 12 -8 22 62 74 73 55 4 -5 16 -7 28 -4z m145 -11 c3 -5 -1 -9 -9 -9 -8 0
-12 4 -9 9 3 4 7 8 9 8 2 0 6 -4 9 -8z"/>
<path d="M4275 1601 c-3 -5 -2 -12 3 -15 5 -3 9 1 9 9 0 17 -3 19 -12 6z"/>
<path d="M4260 1540 c-8 -5 -12 -12 -9 -15 4 -3 12 1 19 10 14 17 11 19 -10 5z"/>
</g>
</svg>
